<svg width="60" height="60" viewBox="0 0 60 60" fill="none" xmlns="http://www.w3.org/2000/svg">
<g clip-path="url(#clip0_404_4075)">
<path d="M30 58.8C14.1187 58.8 1.19995 45.8812 1.19995 30C1.19995 14.1187 14.1187 1.19995 30 1.19995C45.8812 1.19995 58.8 14.1187 58.8 30C58.8 45.8812 45.8812 58.8 30 58.8ZM25.3387 57.0543C26.8556 57.315 28.4118 57.45 30 57.45C36.9243 57.45 43.26 54.8737 48.0937 50.625H48.075V43.6518L41.0868 41.9043C40.9237 41.8631 40.7812 41.7637 40.6875 41.6231L36.9375 35.9981C36.8381 35.85 36.8025 35.6681 36.8381 35.4918L38.7131 26.1168C38.775 25.8018 39.0525 25.575 39.375 25.575H50.625C50.73 25.575 50.8331 25.5993 50.9268 25.6462L57.4293 28.9087C57.2681 24.8343 56.2162 20.9831 54.4612 17.5481H51.0431L49.3556 20.9249C49.2393 21.1556 49.0068 21.2999 48.75 21.2999H41.25C40.8768 21.2999 40.575 20.9981 40.575 20.625V13.125C40.575 12.8343 40.7625 12.5775 41.0362 12.4856L46.5112 10.6612L47.9362 9.2362C43.1212 5.07183 36.8493 2.54995 30 2.54995C24.0581 2.54995 18.5493 4.44933 14.0512 7.67058L17.2368 12.45H22.0818L23.7712 9.07308C23.8856 8.84433 24.12 8.69995 24.375 8.69995H28.125C28.3387 8.69995 28.5393 8.8012 28.6668 8.97183C28.7943 9.14245 28.8318 9.3637 28.7718 9.56808L23.1749 28.2225V31.875C23.1749 32.2481 22.8731 32.55 22.5 32.55H20.625C20.37 32.55 20.1356 32.4056 20.0212 32.1768L18.3318 28.7999H13.3612L9.4087 31.9612L15.3768 38.7806L28.3106 42.4781C28.6612 42.5775 28.8675 42.9375 28.7793 43.29L25.3387 57.0543ZM8.4037 46.9256C12.2512 51.8231 17.7299 55.3893 24.0112 56.7918L27.3112 43.5956L14.8125 40.0237C14.6887 39.9881 14.5762 39.9168 14.49 39.8212L7.92745 32.3212C7.80745 32.1825 7.74745 32.0006 7.76433 31.8168C7.77933 31.6331 7.8712 31.4643 8.0137 31.3481L12.7012 27.5981C12.8231 27.5025 12.9712 27.45 13.125 27.45H18.75C19.005 27.45 19.2393 27.5943 19.3537 27.8231L21.0431 31.1999H21.825V28.125C21.825 28.0593 21.8343 27.9937 21.8531 27.93L27.2174 10.0481H24.7931L23.1037 13.425C22.9893 13.6556 22.755 13.8 22.5 13.8H16.875C16.6481 13.8 16.4381 13.6875 16.3143 13.5L12.9693 8.48433C6.6262 13.5168 2.54995 21.2924 2.54995 30C2.54995 30.5681 2.56683 31.1325 2.60245 31.6931L11.7693 42.6937C11.9943 42.9618 11.9756 43.3575 11.7281 43.6031L8.4037 46.9256ZM41.6681 40.6593L48.9131 42.4706C49.215 42.5456 49.425 42.8175 49.425 43.1268V49.3781C54.2868 44.5031 57.3318 37.8168 57.4462 30.4312L50.4637 26.9268H39.9262L38.2143 35.4862L41.6681 40.6593ZM2.85558 34.1062C3.5062 38.4243 5.16558 42.4162 7.5862 45.8325L10.335 43.0818L2.85558 34.1062ZM41.925 19.95H48.3318L50.0193 16.5731C50.1356 16.3443 50.3681 16.2 50.625 16.2H53.7225C52.4156 13.9612 50.7993 11.9231 48.9337 10.1437L47.3512 11.7262C47.2762 11.8012 47.1862 11.8556 47.0868 11.8893L41.925 13.6106V19.95Z" fill="#2C295F"/>
</g>
<defs>
<clipPath id="clip0_404_4075">
<rect width="60" height="60" fill="white"/>
</clipPath>
</defs>
</svg>
