<svg width="84" height="37" viewBox="0 0 84 37" fill="none" xmlns="http://www.w3.org/2000/svg">
<path d="M75.1912 29.7237H82.0833V24.1434C82.081 23.0369 81.7269 21.9597 81.0723 21.0675C80.4176 20.1754 79.4963 19.5145 78.4414 19.1802L59.6617 13.278L50.7293 5.72723C49.0177 4.28231 47.0336 3.19553 44.8945 2.53126C42.7553 1.86698 40.5046 1.6387 38.2756 1.85995L15.2423 4.19266L7.52654 16.2895C6.76857 17.4824 6.36695 18.8669 6.3689 20.2802V27.0046" stroke="#3C3883" stroke-width="2" stroke-linecap="round" stroke-linejoin="round"/>
<path d="M29.6807 29.7236H62.8993" stroke="#3C3883" stroke-width="2" stroke-linecap="round" stroke-linejoin="round"/>
<path d="M1.91797 28.0079L12.0188 29.7236" stroke="#3C3883" stroke-width="2" stroke-linecap="round" stroke-linejoin="round"/>
<path d="M18.0737 35.7802C21.4178 35.7802 24.1288 33.0692 24.1288 29.725C24.1288 26.3809 21.4178 23.6699 18.0737 23.6699C14.7295 23.6699 12.0186 26.3809 12.0186 29.725C12.0186 33.0692 14.7295 35.7802 18.0737 35.7802Z" stroke="#3C3883" stroke-width="2" stroke-linecap="round" stroke-linejoin="round"/>
<path d="M68.9548 35.7802C72.2989 35.7802 75.0099 33.0692 75.0099 29.725C75.0099 26.3809 72.2989 23.6699 68.9548 23.6699C65.6106 23.6699 62.8997 26.3809 62.8997 29.725C62.8997 33.0692 65.6106 35.7802 68.9548 35.7802Z" stroke="#3C3883" stroke-width="2" stroke-linecap="round" stroke-linejoin="round"/>
<path d="M37.0752 1.98865L38.8606 15.4939V29.7236" stroke="#3C3883" stroke-width="2" stroke-linecap="round" stroke-linejoin="round"/>
<path d="M59.6631 13.2766H24.6456C22.3572 13.0808 15.2423 4.19394 15.2423 4.19394L12.5595 2.42194" stroke="#3C3883" stroke-width="2" stroke-linecap="round" stroke-linejoin="round"/>
</svg>
