<svg width="63" height="49" viewBox="0 0 63 49" fill="none" xmlns="http://www.w3.org/2000/svg">
<g clip-path="url(#clip0_2_1618)">
<path d="M10.8281 5.70191C10.8281 5.15854 11.2691 4.71754 11.8125 4.71754C12.3559 4.71754 12.7969 5.15854 12.7969 5.70191C12.7969 6.24529 12.3559 6.68629 11.8125 6.68629C11.2691 6.68629 10.8281 6.24529 10.8281 5.70191ZM61.74 18.4988V48.03C61.74 48.4218 61.423 48.7388 61.0313 48.7388H1.96876C1.57698 48.7388 1.26001 48.4218 1.26001 48.03V22.4363C1.26001 22.0445 1.57698 21.7275 1.96876 21.7275H3.53588L9.13501 12.3957V8.65504C9.13501 8.26326 9.45198 7.94629 9.84376 7.94629H13.7813C14.173 7.94629 14.49 8.26326 14.49 8.65504V12.3957L20.0891 21.7275H20.9475V14.5613C20.9475 14.1695 21.2645 13.8525 21.6563 13.8525H22.9163V10.6238C22.9163 10.232 23.2332 9.91504 23.625 9.91504H24.885V6.68629C24.885 6.29451 25.202 5.97754 25.5938 5.97754H28.8225V2.74879C28.8225 2.35701 29.1395 2.04004 29.5313 2.04004H33.4688C33.8605 2.04004 34.1775 2.35701 34.1775 2.74879V5.97754H37.4063C37.798 5.97754 38.115 6.29451 38.115 6.68629V9.91504H39.375C39.7668 9.91504 40.0838 10.232 40.0838 10.6238V13.8525H41.3438C41.7355 13.8525 42.0525 14.1695 42.0525 14.5613V17.79H42.9995C45.736 14.8999 46.3601 10.9506 46.4979 9.36379H45.2813V7.94629H46.6121C46.9567 5.7216 48.8683 4.00879 51.1875 4.00879C53.5067 4.00879 55.4184 5.7216 55.7629 7.94629H57.0938V9.36379H55.8771C56.0149 10.9506 56.639 14.8999 59.3755 17.79H61.0313C61.423 17.79 61.74 18.107 61.74 18.4988ZM48.0434 7.94629H54.3316C54.0068 6.50713 52.7231 5.42629 51.1875 5.42629C49.6519 5.42629 48.3683 6.50713 48.0434 7.94629ZM44.8599 17.79H57.5151C55.1014 14.6459 54.5639 10.9034 54.4478 9.36379H47.9273C47.8111 10.9034 47.2736 14.6459 44.8599 17.79ZM42.0525 19.2075V29.6025H60.3205V19.2075H42.0525ZM24.3338 13.8525H28.8225V12.5925C28.8225 11.116 30.0234 9.91504 31.5 9.91504C32.9766 9.91504 34.1775 11.116 34.1775 12.5925V13.8525H38.6643V11.3325H37.4063C37.0145 11.3325 36.6975 11.0156 36.6975 10.6238V7.39504H33.4688C33.077 7.39504 32.76 7.07807 32.76 6.68629V3.45754H30.24V6.68629C30.24 7.07807 29.923 7.39504 29.5313 7.39504H26.3025V10.6238C26.3025 11.0156 25.9855 11.3325 25.5938 11.3325H24.3338V13.8525ZM32.76 12.5925C32.76 11.8976 32.195 11.3325 31.5 11.3325C30.805 11.3325 30.24 11.8976 30.24 12.5925V13.8525H32.76V12.5925ZM5.18963 21.7275H9.13501V20.4675C9.13501 18.991 10.3359 17.79 11.8125 17.79C13.2891 17.79 14.49 18.991 14.49 20.4675V21.7275H18.4374L13.1729 12.9568C13.165 12.943 13.165 12.9253 13.1572 12.9115C13.1355 12.8701 13.1237 12.8249 13.1099 12.7796C13.0981 12.7323 13.0843 12.687 13.0824 12.6398C13.0804 12.6221 13.0725 12.6083 13.0725 12.5925V9.36379H10.5525V12.5925C10.5525 12.6083 10.5446 12.6221 10.5427 12.6398C10.5407 12.687 10.5269 12.7323 10.5151 12.7796C10.5013 12.8249 10.4895 12.8701 10.4679 12.9115C10.46 12.9253 10.46 12.943 10.4521 12.9568L5.18963 21.7275ZM13.0725 20.4675C13.0725 19.7726 12.5075 19.2075 11.8125 19.2075C11.1175 19.2075 10.5525 19.7726 10.5525 20.4675V21.7275H13.0725V20.4675ZM2.67751 47.3213H7.16626V37.4775H16.4588V47.3213H20.9475V23.145H2.67751V47.3213ZM12.5213 47.3213H15.0413V38.895H12.5213V47.3213ZM11.1038 38.895H8.58376V47.3193H11.1038V38.895ZM36.6975 38.895H34.1775V47.3193H36.6955L36.6975 38.895ZM40.635 47.3213V15.27H22.365V47.3213H32.76V37.4775H38.115V47.3213H40.635ZM56.385 34.9575H53.865V47.3193H56.383L56.385 34.9575ZM60.3225 47.3213V31.02H42.0525V47.3213H52.4455V33.54H57.8025V47.3213H60.3225ZM10.5525 34.9575H5.19751V25.665H10.5525V34.9575ZM9.13501 27.0825H6.61501V33.54H9.13501V27.0825ZM18.4275 34.9575H13.0725V25.665H18.4275V34.9575ZM17.01 27.0825H14.49V33.54H17.01V27.0825ZM24.885 37.4775H30.24V44.8033H24.885V37.4775ZM26.3025 43.3838H28.8225V38.895H26.3025V43.3838ZM32.76 25.665H38.115V34.9575H32.76V25.665ZM34.1775 33.54H36.6955V27.0825H34.1775V33.54ZM24.885 25.665H30.24V34.9575H24.885V25.665ZM26.3025 33.54H28.8225V27.0825H26.3025V33.54ZM44.5725 33.54H49.9295V44.8013H44.5725V33.54ZM45.99 43.3838H48.508V34.9575H45.99V43.3838ZM53.865 27.0825H48.51V21.7275H53.867L53.865 27.0825ZM52.4475 23.145H49.9275V25.665H52.4455L52.4475 23.145ZM57.8025 22.4363H56.385V26.3738H57.8045L57.8025 22.4363ZM50.4788 10.6238V14.5613H51.8982V10.6238H50.4788ZM45.99 22.4363H44.5725V26.3738H45.992L45.99 22.4363ZM32.76 17.79H38.115V23.145H32.76V17.79ZM34.1775 21.7275H36.6955V19.2075H34.1775V21.7275ZM24.885 17.79H30.24V23.145H24.885V17.79ZM26.3025 21.7275H28.8225V19.2075H26.3025V21.7275Z" fill="#2C295F"/>
</g>
<defs>
<clipPath id="clip0_2_1618">
<rect width="63" height="48" fill="white" transform="translate(0 0.780029)"/>
</clipPath>
</defs>
</svg>
