<svg width="52" height="56" viewBox="0 0 52 56" fill="none" xmlns="http://www.w3.org/2000/svg">
<path d="M26.1142 0.88513C26.0538 0.883519 25.9938 0.889559 25.9351 0.903249L0.753352 6.67556C0.425598 6.75045 0.192871 7.04237 0.192871 7.37898V26.5956C0.192871 36.7386 6.68631 44.029 13.0826 48.7324C19.4791 53.4357 25.8704 55.6365 25.8704 55.6365H25.8708C26.0238 55.6889 26.1901 55.6885 26.3431 55.6353C26.3431 55.6353 32.729 53.4175 39.1205 48.7062C45.5109 43.9948 52 36.7049 52 26.5951V7.37849C52 7.04188 51.7677 6.74996 51.4399 6.67507L26.2582 0.902762C26.2111 0.891891 26.1632 0.885852 26.1148 0.884644L26.1142 0.88513ZM26.0961 2.34635L50.5563 7.95281V26.5953C50.5563 36.0873 44.4595 42.9773 38.2644 47.5447C32.2581 51.9726 26.4662 54.0438 26.1054 54.1714C25.7454 54.045 19.9486 51.9895 13.9372 47.5688C7.73759 43.0104 1.63595 36.1221 1.63595 26.5947V7.95219L26.0961 2.34573V2.34635ZM26.1267 11.8053C22.5138 11.8053 19.4368 14.2828 19.086 18C19.0514 18.3685 19.0116 19.452 19.0116 19.787C19.0116 21.3705 19.4762 22.8463 20.273 24.0611C20.873 24.9759 21.6678 26.001 22.6349 26.8256C23.6021 27.6502 24.7674 28.2957 26.0859 28.2957C27.3873 28.2957 28.5408 27.6708 29.5008 26.8683C30.4611 26.0658 31.2527 25.0668 31.8546 24.1693C32.6462 22.9892 33.0888 21.5263 33.1286 19.9923H33.129C33.1491 19.9259 33.16 19.8566 33.1604 19.787C33.1604 19.7048 33.1668 19.311 33.1717 18.9334C33.1765 18.5557 33.1918 18.2722 33.166 18C32.8157 14.2824 29.7395 11.8053 26.1266 11.8053L26.1267 11.8053ZM26.1267 13.2484C29.1043 13.2484 31.446 15.1247 31.7299 18.1357C31.7246 18.0809 31.7347 18.544 31.7299 18.9148C31.7255 19.2643 31.7194 19.5772 31.7186 19.7366C31.7186 19.739 31.7174 19.7475 31.7174 19.7503V19.7499C31.7166 19.7624 31.7162 19.7749 31.7162 19.7873C31.7162 21.1121 31.3172 22.3799 30.6565 23.3644C30.1064 24.1842 29.3792 25.0893 28.5752 25.7614C27.7711 26.433 26.9159 26.8525 26.0861 26.8525C25.249 26.8525 24.3833 26.4193 23.572 25.7276C22.7607 25.0354 22.0279 24.1057 21.4794 23.2698C20.8352 22.2873 20.4547 21.0887 20.4547 19.7873C20.4547 19.6677 20.5159 18.2025 20.5223 18.1357C20.8062 15.1248 23.1487 13.2484 26.1267 13.2484L26.1267 13.2484ZM30.4447 26.7834L29.5283 27.7103C28.6276 28.6219 27.1088 29.4003 26.0865 29.4003C25.0323 29.4003 23.6029 28.6602 22.6898 27.716L21.8273 26.8241L21.479 28.0148C21.4524 28.1054 21.4609 28.0869 21.4565 28.1074C21.452 28.1275 21.4484 28.1505 21.442 28.1795C21.4291 28.2378 21.4102 28.3184 21.3832 28.4174C21.3292 28.6155 21.2431 28.8877 21.1114 29.1929C20.8481 29.8037 20.4048 30.5369 19.692 31.0971C19.0816 31.577 17.4264 32.0654 15.7606 32.4907C14.0948 32.9158 12.4226 33.2657 11.3637 34.1367C9.55266 35.6265 9.26229 37.6453 9.26229 37.6453L9.14512 38.4683H43.0482L42.8452 37.5857C42.8452 37.5857 42.3894 35.5757 40.5397 34.1259C39.465 33.2835 37.7877 32.9352 36.1247 32.5104C34.4618 32.0856 32.8206 31.586 32.2363 31.1068C31.5849 30.5729 31.2289 29.8993 31.0268 29.3142C30.9258 29.0215 30.865 28.7545 30.8263 28.5452C30.7873 28.3358 30.7949 28.2686 30.7442 28.0523L30.4454 26.784L30.4447 26.7834ZM22.5642 29.3966C23.605 30.2027 24.8065 30.8429 26.0861 30.8429C27.3391 30.8429 28.5338 30.2164 29.573 29.4417C29.6068 29.5629 29.6173 29.6515 29.6632 29.7843C29.9253 30.5425 30.4101 31.4743 31.3217 32.2219C32.404 33.1093 34.0995 33.4814 35.7669 33.9074C37.4347 34.3334 39.0814 34.8158 39.6496 35.2615C40.382 35.8357 40.8233 36.4993 41.0895 37.0247H10.9498C11.1664 36.5069 11.5485 35.8518 12.2801 35.2502C12.8196 34.8065 14.4511 34.3132 16.1165 33.8884C17.7822 33.4633 19.4851 33.0944 20.5834 32.2312C21.5454 31.475 22.107 30.5268 22.4356 29.7645C22.498 29.62 22.5174 29.5266 22.5641 29.3969L22.5642 29.3966Z" fill="#2C295F"/>
</svg>
