<?xml version="1.0" encoding="UTF-8"?><svg id="Layer_1" xmlns="http://www.w3.org/2000/svg" viewBox="0 0 438.68 149.77"><defs><style>.cls-1,.cls-2{fill:#2b2a5f;}.cls-3,.cls-4{fill:#fff;}.cls-4{fill-rule:evenodd;}.cls-2{stroke-width:1.02px;}.cls-2,.cls-5,.cls-6{stroke-miterlimit:10;}.cls-2,.cls-6{stroke:#fff;}.cls-5{stroke:#2b2a5f;stroke-width:5.97px;}.cls-5,.cls-6{fill:none;}.cls-6{stroke-width:8.66px;}</style></defs><path class="cls-6" d="m256.76,4.45c16.54-1.07,29.42,5.54,37.81,13.38,4.67,4.36,8.06,8.72,11.06,14.59,2.89,5.66,5.06,12.3,5.47,20.06.67,12.63-3.07,22.8-7.9,30.52-4.91,7.83-11.55,13.8-20.18,18.24-5.6,2.88-12.35,5.15-20.06,5.47-16.2.68-28.79-5.13-37.69-13.25-4.39-4.01-8.16-8.89-11.07-14.59-2.86-5.61-5.13-12.51-5.47-20.06-.78-17.17,5.44-28.97,13.38-37.81,3.07-3.42,6.45-6.37,10.46-8.88,6.48-4.06,14.31-7.02,24.2-7.66Zm42.19,35.87c-2.74-7.05-6.89-12.88-12.16-17.14-7.09-5.74-16.83-10.35-29.55-9.61-10.69.63-19.29,5.11-25.78,10.94-4.69,4.22-8.49,9.76-10.94,16.17-.82,2.14-1.97,4.78-.73,7.17,2.94.82,5.77-.16,8.51-.85,1.28-.32,2.65-.76,4.01-1.09,1.38-.34,2.95-.44,4.13-.97.63-.28,1.14-.93,1.7-1.34,4.94-3.59,13.79-4.74,21.64-4.74,7.08,0,14.8.82,19.94,3.4,1.17.59,2.5,1.75,3.4,2.43.24.19.17.07.61.24,2.49.96,5.27,1.28,7.9,1.95,2.63.66,5.36,1.93,8.27.97,1.37-2.57-.09-5.27-.97-7.54Zm-75.39,22.13c-1.38.12-3.19.65-3.77,1.58-1.22,1.95.26,5.37,1.09,7.42,4.17,10.21,11.88,18.07,22.01,22.62,1.65.74,4.53,1.8,5.84.97,1.41-.88,1.31-4.11,1.22-6.32-.11-2.54-.57-4.63-.61-6.93-7.89-3.54-13.19-9.67-14.96-19.33-3.6.18-7.98-.24-10.82,0Zm62.01.36c-1.98,9.25-6.97,15.49-14.83,18.85-.04,2.37-.52,4.41-.61,7.05-.08,2.22-.18,5.67,1.34,6.44,1.29.66,4-.48,5.59-1.22,7.76-3.57,13.45-8.79,17.87-15.2,1.55-2.25,2.74-4.47,3.89-7.3.66-1.62,1.72-4.19,1.58-5.84-.26-3.08-3.68-3.16-6.69-3.16h-8.02c-.14.02-.13.19-.12.36Z"/><path class="cls-4" d="m256.76,4.45c16.54-1.07,29.42,5.54,37.81,13.38,4.67,4.36,8.06,8.72,11.06,14.59,2.89,5.66,5.06,12.3,5.47,20.06.67,12.63-3.07,22.8-7.9,30.52-4.91,7.83-11.55,13.8-20.18,18.24-5.6,2.88-12.35,5.15-20.06,5.47-16.2.68-28.79-5.13-37.69-13.25-4.39-4.01-8.16-8.89-11.07-14.59-2.86-5.61-5.13-12.51-5.47-20.06-.78-17.17,5.44-28.97,13.38-37.81,3.07-3.42,6.45-6.37,10.46-8.88,6.48-4.06,14.31-7.02,24.2-7.66Zm42.19,35.87c-2.74-7.05-6.89-12.88-12.16-17.14-7.09-5.74-16.83-10.35-29.55-9.61-10.69.63-19.29,5.11-25.78,10.94-4.69,4.22-8.49,9.76-10.94,16.17-.82,2.14-1.97,4.78-.73,7.17,2.94.82,5.77-.16,8.51-.85,1.28-.32,2.65-.76,4.01-1.09,1.38-.34,2.95-.44,4.13-.97.63-.28,1.14-.93,1.7-1.34,4.94-3.59,13.79-4.74,21.64-4.74,7.08,0,14.8.82,19.94,3.4,1.17.59,2.5,1.75,3.4,2.43.24.19.17.07.61.24,2.49.96,5.27,1.28,7.9,1.95,2.63.66,5.36,1.93,8.27.97,1.37-2.57-.09-5.27-.97-7.54Zm-75.39,22.13c-1.38.12-3.19.65-3.77,1.58-1.22,1.95.26,5.37,1.09,7.42,4.17,10.21,11.88,18.07,22.01,22.62,1.65.74,4.53,1.8,5.84.97,1.41-.88,1.31-4.11,1.22-6.32-.11-2.54-.57-4.63-.61-6.93-7.89-3.54-13.19-9.67-14.96-19.33-3.6.18-7.98-.24-10.82,0Zm62.01.36c-1.98,9.25-6.97,15.49-14.83,18.85-.04,2.37-.52,4.41-.61,7.05-.08,2.22-.18,5.67,1.34,6.44,1.29.66,4-.48,5.59-1.22,7.76-3.57,13.45-8.79,17.87-15.2,1.55-2.25,2.74-4.47,3.89-7.3.66-1.62,1.72-4.19,1.58-5.84-.26-3.08-3.68-3.16-6.69-3.16h-8.02c-.14.02-.13.19-.12.36Z"/><path class="cls-2" d="m296.47,15.65h134.36c4.03,0,7.33,3.62,7.33,8.05v65.12c0,4.43-3.3,8.05-7.33,8.05H7.92c-4.03,0-7.33-3.62-7.33-8.05V23.7c0-4.43,3.3-8.05,7.33-8.05h215.39"/><path class="cls-3" d="m63.18,34.6v40.11c0,1.78-1.44,3.22-3.22,3.22h-1.31c-1.78,0-3.22-1.44-3.22-3.22v-16.53l-15.48,19.34-15.48-19.34v16.53c0,1.78-1.44,3.22-3.22,3.22h-1.31c-1.78,0-3.22-1.44-3.22-3.22v-40.11l23.23,30.01,23.23-30.01Z"/><path class="cls-3" d="m108.68,34.52v.03l-16.77,21.71-.03.03-.93,1.18v17.21c0,1.78-1.44,3.22-3.22,3.22h-1.31c-1.78,0-3.22-1.44-3.22-3.22v-17.08l-1.03-1.31-.03-.03-12.78-16.56c-1.63-2.11-.12-5.18,2.55-5.18h1.62c1,0,1.94.46,2.55,1.25l10.95,14.18,10.95-14.18c.61-.79,1.55-1.25,2.55-1.25h8.14Zm-43.3,43.35h.1l-.1.13v-.13Zm43.22,0h.08v.1l-.08-.1Z"/><path class="cls-3" d="m115.86,57.21c.49,7.41,6.98,13,14.4,13h17.96c1.78,0,3.22,1.44,3.22,3.22v1.28c0,1.78-1.44,3.22-3.22,3.22h-17.83c-11.66,0-21.7-8.96-22.25-20.61-.59-12.44,9.33-22.71,21.64-22.71h18.45c1.78,0,3.22,1.44,3.22,3.22v1.29c0,1.78-1.44,3.22-3.22,3.22h-18.45c-8.01,0-14.45,6.77-13.91,14.89Z"/><path class="cls-3" d="m200.7,37.83v36.87c0,1.78-1.44,3.22-3.22,3.22h-1.29c-1.78,0-3.22-1.44-3.22-3.22v-16.65h-27.85v16.64c0,1.78-1.44,3.22-3.22,3.22h-1.29c-1.78,0-3.22-1.44-3.22-3.22v-36.86c0-1.78,1.44-3.22,3.22-3.22h1.29c1.78,0,3.22,1.44,3.22,3.22v12.5h27.85v-12.49c0-1.78,1.44-3.22,3.22-3.22h1.29c1.78,0,3.22,1.44,3.22,3.22Z"/><path class="cls-3" d="m318.27,74.69v-36.87c0-1.78,1.44-3.22,3.22-3.22h1.29c1.78,0,3.22,1.44,3.22,3.22v36.87c0,1.78-1.44,3.22-3.22,3.22h-1.29c-1.78,0-3.22-1.44-3.22-3.22Z"/><path class="cls-3" d="m374.92,73.39v1.28c0,1.78-1.44,3.22-3.22,3.22h-33.45c-2.67,0-4.18-3.07-2.55-5.18l23.42-30.32h-24.31c-1.78,0-3.22-1.44-3.22-3.22v-1.31c0-1.78,1.44-3.22,3.21-3.22l33.48-.02c2.67,0,4.18,3.07,2.55,5.18l-23.43,30.37h24.29c1.78,0,3.22,1.44,3.22,3.22Z"/><path class="cls-3" d="m386.45,46.28v6.32h31.88c1.78,0,3.22,1.44,3.22,3.22v1.29c0,1.78-1.44,3.22-3.22,3.22h-31.88v5.9c0,2.19,1.79,3.99,3.99,3.99h28.37c1.78,0,3.22,1.44,3.22,3.22v1.28c0,1.78-1.44,3.22-3.22,3.22h-28.4c-6.45,0-11.68-5.23-11.68-11.68v-19.96c0-6.45,5.23-11.68,11.68-11.68h28.4c1.78,0,3.22,1.44,3.22,3.22v1.29c0,1.78-1.44,3.22-3.22,3.22h-28.4c-2.19,0-3.96,1.77-3.96,3.96Z"/><path class="cls-5" d="m256.76,4.45c16.54-1.07,29.42,5.54,37.81,13.38,4.67,4.36,8.06,8.72,11.06,14.59,2.89,5.66,5.06,12.3,5.47,20.06.67,12.63-3.07,22.8-7.9,30.52-4.91,7.83-11.55,13.8-20.18,18.24-5.6,2.88-12.35,5.15-20.06,5.47-16.2.68-28.79-5.13-37.69-13.25-4.39-4.01-8.16-8.89-11.07-14.59-2.86-5.61-5.13-12.51-5.47-20.06-.78-17.17,5.44-28.97,13.38-37.81,3.07-3.42,6.45-6.37,10.46-8.88,6.48-4.06,14.31-7.02,24.2-7.66Zm42.19,35.87c-2.74-7.05-6.89-12.88-12.16-17.14-7.09-5.74-16.83-10.35-29.55-9.61-10.69.63-19.29,5.11-25.78,10.94-4.69,4.22-8.49,9.76-10.94,16.17-.82,2.14-1.97,4.78-.73,7.17,2.94.82,5.77-.16,8.51-.85,1.28-.32,2.65-.76,4.01-1.09,1.38-.34,2.95-.44,4.13-.97.63-.28,1.14-.93,1.7-1.34,4.94-3.59,13.79-4.74,21.64-4.74,7.08,0,14.8.82,19.94,3.4,1.17.59,2.5,1.75,3.4,2.43.24.19.17.07.61.24,2.49.96,5.27,1.28,7.9,1.95,2.63.66,5.36,1.93,8.27.97,1.37-2.57-.09-5.27-.97-7.54Zm-75.39,22.13c-1.38.12-3.19.65-3.77,1.58-1.22,1.95.26,5.37,1.09,7.42,4.17,10.21,11.88,18.07,22.01,22.62,1.65.74,4.53,1.8,5.84.97,1.41-.88,1.31-4.11,1.22-6.32-.11-2.54-.57-4.63-.61-6.93-7.89-3.54-13.19-9.67-14.96-19.33-3.6.18-7.98-.24-10.82,0Zm62.01.36c-1.98,9.25-6.97,15.49-14.83,18.85-.04,2.37-.52,4.41-.61,7.05-.08,2.22-.18,5.67,1.34,6.44,1.29.66,4-.48,5.59-1.22,7.76-3.57,13.45-8.79,17.87-15.2,1.55-2.25,2.74-4.47,3.89-7.3.66-1.62,1.72-4.19,1.58-5.84-.26-3.08-3.68-3.16-6.69-3.16h-8.02c-.14.02-.13.19-.12.36Z"/><path class="cls-4" d="m256.76,4.45c16.54-1.07,29.42,5.54,37.81,13.38,4.67,4.36,8.06,8.72,11.06,14.59,2.89,5.66,5.06,12.3,5.47,20.06.67,12.63-3.07,22.8-7.9,30.52-4.91,7.83-11.55,13.8-20.18,18.24-5.6,2.88-12.35,5.15-20.06,5.47-16.2.68-28.79-5.13-37.69-13.25-4.39-4.01-8.16-8.89-11.07-14.59-2.86-5.61-5.13-12.51-5.47-20.06-.78-17.17,5.44-28.97,13.38-37.81,3.07-3.42,6.45-6.37,10.46-8.88,6.48-4.06,14.31-7.02,24.2-7.66Zm42.19,35.87c-2.74-7.05-6.89-12.88-12.16-17.14-7.09-5.74-16.83-10.35-29.55-9.61-10.69.63-19.29,5.11-25.78,10.94-4.69,4.22-8.49,9.76-10.94,16.17-.82,2.14-1.97,4.78-.73,7.17,2.94.82,5.77-.16,8.51-.85,1.28-.32,2.65-.76,4.01-1.09,1.38-.34,2.95-.44,4.13-.97.63-.28,1.14-.93,1.7-1.34,4.94-3.59,13.79-4.74,21.64-4.74,7.08,0,14.8.82,19.94,3.4,1.17.59,2.5,1.75,3.4,2.43.24.19.17.07.61.24,2.49.96,5.27,1.28,7.9,1.95,2.63.66,5.36,1.93,8.27.97,1.37-2.57-.09-5.27-.97-7.54Zm-75.39,22.13c-1.38.12-3.19.65-3.77,1.58-1.22,1.95.26,5.37,1.09,7.42,4.17,10.21,11.88,18.07,22.01,22.62,1.65.74,4.53,1.8,5.84.97,1.41-.88,1.31-4.11,1.22-6.32-.11-2.54-.57-4.63-.61-6.93-7.89-3.54-13.19-9.67-14.96-19.33-3.6.18-7.98-.24-10.82,0Zm62.01.36c-1.98,9.25-6.97,15.49-14.83,18.85-.04,2.37-.52,4.41-.61,7.05-.08,2.22-.18,5.67,1.34,6.44,1.29.66,4-.48,5.59-1.22,7.76-3.57,13.45-8.79,17.87-15.2,1.55-2.25,2.74-4.47,3.89-7.3.66-1.62,1.72-4.19,1.58-5.84-.26-3.08-3.68-3.16-6.69-3.16h-8.02c-.14.02-.13.19-.12.36Z"/><circle class="cls-1" cx="96.66" cy="137.97" r="5.1"/><circle class="cls-1" cx="342.09" cy="137.82" r="5.1"/><path class="cls-1" d="m132.39,132.88h-4.99c0-1.85-.22-3.17-.66-3.97-.44-.8-1.21-1.2-2.32-1.2-1.22,0-2.06.72-2.5,2.15-.42,1.32-.62,3.78-.62,7.38s.27,5.96.8,7.21c.44,1.09,1.24,1.63,2.39,1.63,1.02,0,1.77-.38,2.25-1.14.58-.95.87-2.66.87-5.13h4.99c0,3.1-.5,5.42-1.49,6.97-1.25,1.99-3.37,2.98-6.38,2.98-3.44,0-5.78-1.2-7-3.6-.95-1.82-1.42-4.91-1.42-9.25s.47-7.43,1.42-9.25c1.22-2.4,3.56-3.6,7-3.6,3.14,0,5.31,1.02,6.52,3.05.76,1.34,1.14,3.27,1.14,5.79Z"/><path class="cls-1" d="m135.44,149.28l6.55-24.74h6.17l6.55,24.74h-5.2l-1.14-5.23h-6.58l-1.14,5.23h-5.2Zm9.6-20.45l-2.39,11.12h4.85l-2.39-11.12h-.07Z"/><path class="cls-1" d="m158.18,149.28v-24.74h9.22c2.08,0,3.7.54,4.85,1.63,1.16,1.09,1.73,2.67,1.73,4.75,0,3.49-1.37,5.52-4.12,6.1v.07c1.64.21,2.71.87,3.22,1.98.46.97.72,2.83.76,5.58.02,1.43.09,2.44.21,3.01.16.72.46,1.19.9,1.42v.21h-5.41c-.37-.55-.58-1.42-.62-2.6l-.14-4.75c-.07-2.08-1.05-3.12-2.95-3.12h-2.67v10.47h-4.99Zm4.99-21.07v7.14h2.08c2.5,0,3.74-1.24,3.74-3.71,0-2.29-1.16-3.43-3.47-3.43h-2.36Z"/><path class="cls-1" d="m189.23,149.28v-24.74h9.22c2.08,0,3.7.54,4.85,1.63,1.16,1.09,1.73,2.67,1.73,4.75,0,3.49-1.37,5.52-4.12,6.1v.07c1.64.21,2.71.87,3.22,1.98.46.97.72,2.83.76,5.58.02,1.43.09,2.44.21,3.01.16.72.46,1.19.9,1.42v.21h-5.41c-.37-.55-.58-1.42-.62-2.6l-.14-4.75c-.07-2.08-1.05-3.12-2.95-3.12h-2.67v10.47h-4.99Zm4.99-21.07v7.14h2.08c2.5,0,3.74-1.24,3.74-3.71,0-2.29-1.16-3.43-3.47-3.43h-2.36Z"/><path class="cls-1" d="m210.23,124.53h13.83v4.09h-8.84v5.82h8.32v4.09h-8.32v6.65h9.18v4.09h-14.17v-24.74Z"/><path class="cls-1" d="m228.63,124.53h5.79l6.07,16.95v-16.95h4.57v24.74h-5.72l-6.13-17.33v17.33h-4.57v-24.74Z"/><path class="cls-1" d="m248.94,124.53h15.8v4.09h-5.41v20.65h-4.99v-20.65h-5.41v-4.09Z"/><path class="cls-1" d="m266.89,149.28l6.55-24.74h6.17l6.55,24.74h-5.2l-1.14-5.23h-6.58l-1.14,5.23h-5.2Zm9.6-20.45l-2.39,11.12h4.85l-2.39-11.12h-.07Z"/><path class="cls-1" d="m303.45,149.28h-13.83v-24.74h4.99v20.65h8.84v4.09Z"/><path class="cls-1" d="m306.43,141.55h4.99v.73c0,1.27.22,2.2.66,2.77.51.69,1.39,1.04,2.63,1.04.83,0,1.54-.27,2.11-.8.58-.53.87-1.28.87-2.25,0-1.09-.31-1.92-.94-2.49-.62-.58-1.79-1.16-3.5-1.73-2.31-.78-3.94-1.71-4.89-2.77-1.06-1.16-1.59-2.73-1.59-4.71,0-2.36.69-4.17,2.08-5.44,1.32-1.22,3.18-1.84,5.58-1.84s4.19.52,5.51,1.56c1.43,1.13,2.15,2.83,2.15,5.09v.69h-4.78c0-2.45-.9-3.67-2.7-3.67-1.89,0-2.84.96-2.84,2.88,0,.81.16,1.44.49,1.91.37.53,1.06,1.02,2.08,1.46l3.85,1.66c1.8.79,3.06,1.7,3.78,2.74.62.95.94,2.22.94,3.81,0,5.06-2.87,7.59-8.59,7.59-5.24,0-7.87-2.4-7.87-7.21v-1Z"/></svg>